<svg xmlns="http://www.w3.org/2000/svg" xmlns:xlink="http://www.w3.org/1999/xlink" width="16.995" height="16.714" viewBox="0 0 16.995 16.714">
  <defs>
    <clipPath id="clip-path">
      <rect id="Rectangle_605" data-name="Rectangle 605" width="16.995" height="16.714" fill="#54b9a1"/>
    </clipPath>
  </defs>
  <g id="Group_576" data-name="Group 576" clip-path="url(#clip-path)">
    <path id="Path_638" data-name="Path 638" d="M16.994,32.616V46.092a1.2,1.2,0,0,1-1.36.916Q8.45,46.993,1.265,47a1.792,1.792,0,0,1-.444-.039A1.084,1.084,0,0,1,0,45.808q0-6.463,0-12.925c0-.039,0-.077,0-.116a1.088,1.088,0,0,1,1.081-1.079c.227-.007.453,0,.68,0H2.941v.191c0,.52-.011,1.04.005,1.559a1.593,1.593,0,0,0,.121.609,1.187,1.187,0,0,0,1.18.7,1.235,1.235,0,0,0,1.362-1.353q0-.763,0-1.526v-.17h5.91v.186c0,.525,0,1.051,0,1.576a1.2,1.2,0,0,0,.729,1.164,1.694,1.694,0,0,0,1.043.071,1,1,0,0,0,.9-1.09c0-.575,0-1.15,0-1.726V31.7c.627,0,1.234-.006,1.842.005a.941.941,0,0,1,.361.108,1.128,1.128,0,0,1,.6.806M1.1,45.908H15.9V36H1.1Z" transform="translate(0 -30.294)" fill="#54b9a1"/>
    <path id="Path_639" data-name="Path 639" d="M79.389,2.664c0-.4,0-.807,0-1.211a.675.675,0,0,1,.735-.731,1.681,1.681,0,0,1,.281.011.658.658,0,0,1,.562.678q.014,1.244,0,2.488a.667.667,0,0,1-.719.7,1.711,1.711,0,0,1-.265-.01.654.654,0,0,1-.593-.664c-.006-.42,0-.84,0-1.26Z" transform="translate(-75.904 -0.691)" fill="#54b9a1"/>
    <path id="Path_640" data-name="Path 640" d="M276.466,1.955c0,.4,0,.8,0,1.194a.67.67,0,0,1-.741.737c-.077,0-.155,0-.232,0a.642.642,0,0,1-.59-.556,4.375,4.375,0,0,1-.017-.5c0-.674,0-1.349,0-2.023a.689.689,0,0,1,.348-.7.972.972,0,0,1,.909.011.613.613,0,0,1,.324.577c0,.42,0,.84,0,1.26" transform="translate(-262.821 0.001)" fill="#54b9a1"/>
    <path id="Path_641" data-name="Path 641" d="M59.121,288.854c-.3,0-.6,0-.9,0-.152,0-.222-.055-.221-.214q.007-.771,0-1.542c0-.154.057-.223.213-.222q.9,0,1.808,0c.154,0,.216.067.215.222,0,.509,0,1.017,0,1.526,0,.19-.04.228-.237.229-.293,0-.586,0-.879,0" transform="translate(-55.459 -274.288)" fill="#54b9a1"/>
    <path id="Path_642" data-name="Path 642" d="M131.765,288.86c-.3,0-.6,0-.9,0-.152,0-.222-.054-.22-.214q.008-.779,0-1.559c0-.153.069-.206.211-.206q.9,0,1.808,0c.154,0,.217.067.215.222,0,.508,0,1.017,0,1.526,0,.19-.041.228-.238.229-.293,0-.586,0-.879,0" transform="translate(-124.916 -274.294)" fill="#54b9a1"/>
    <path id="Path_643" data-name="Path 643" d="M204.374,288.863c-.3,0-.6,0-.9,0-.145,0-.211-.058-.21-.208q.006-.779,0-1.559c0-.149.061-.212.206-.211q.912,0,1.824,0c.147,0,.2.07.2.216q-.006.771,0,1.542c0,.156-.062.222-.217.22-.3,0-.608,0-.912,0" transform="translate(-194.349 -274.297)" fill="#54b9a1"/>
    <path id="Path_644" data-name="Path 644" d="M277.018,288.883c-.3,0-.6,0-.9,0-.144,0-.212-.054-.211-.206q.006-.788,0-1.575c0-.133.057-.2.187-.2h1.857c.129,0,.189.064.188.2q0,.788,0,1.575c0,.152-.073.206-.215.2-.3,0-.608,0-.912,0" transform="translate(-263.804 -274.317)" fill="#54b9a1"/>
    <path id="Path_645" data-name="Path 645" d="M204.385,162.771c-.3,0-.6,0-.9,0-.153,0-.223-.052-.221-.212,0-.519,0-1.039,0-1.558,0-.139.055-.2.2-.2q.92,0,1.84,0c.14,0,.2.062.2.2,0,.519,0,1.039,0,1.558,0,.16-.071.214-.223.212-.3-.006-.6,0-.9,0" transform="translate(-194.349 -153.745)" fill="#54b9a1"/>
    <path id="Path_646" data-name="Path 646" d="M277.019,162.782c-.3,0-.6,0-.9,0-.146,0-.211-.054-.21-.2q.006-.787,0-1.575c0-.133.056-.192.188-.191q.928,0,1.857,0c.133,0,.188.064.187.195q0,.788,0,1.575c0,.139-.059.2-.2.2-.309,0-.619,0-.928,0" transform="translate(-263.806 -153.755)" fill="#54b9a1"/>
    <path id="Path_647" data-name="Path 647" d="M59.137,225.8c-.3,0-.608,0-.912,0-.145,0-.212-.054-.21-.205q.006-.779,0-1.558c0-.147.058-.21.207-.209q.912.005,1.824,0c.138,0,.2.056.2.2q0,.787,0,1.575c0,.141-.062.2-.2.2-.3,0-.608,0-.912,0" transform="translate(-55.469 -214.003)" fill="#54b9a1"/>
    <path id="Path_648" data-name="Path 648" d="M131.774,223.822c.3,0,.6,0,.9,0,.156,0,.219.062.218.217q-.006.771,0,1.542c0,.145-.054.214-.2.213q-.912,0-1.824,0c-.147,0-.208-.059-.207-.208q.007-.779,0-1.558c0-.149.062-.208.209-.206.3,0,.608,0,.912,0" transform="translate(-124.919 -213.998)" fill="#54b9a1"/>
    <path id="Path_649" data-name="Path 649" d="M204.393,223.83c.3,0,.608,0,.912,0,.149,0,.208.063.207.21q-.005.779,0,1.558c0,.139-.055.2-.2.2q-.92,0-1.84,0c-.14,0-.2-.06-.2-.2q0-.787,0-1.575c0-.142.064-.2.2-.2.3,0,.608,0,.912,0" transform="translate(-194.359 -214.007)" fill="#54b9a1"/>
    <path id="Path_650" data-name="Path 650" d="M277.039,223.821c.3,0,.6,0,.9,0,.152,0,.223.053.222.212,0,.519,0,1.039,0,1.558,0,.14-.059.2-.2.2q-.92,0-1.84,0c-.128,0-.195-.049-.194-.186q0-.8,0-1.591c0-.144.067-.2.2-.194.3,0,.608,0,.912,0" transform="translate(-263.816 -213.998)" fill="#54b9a1"/>
  </g>
</svg>
