<svg xmlns="http://www.w3.org/2000/svg" xmlns:xlink="http://www.w3.org/1999/xlink" width="189.385" height="60.975" viewBox="0 0 189.385 60.975">
  <defs>
    <clipPath id="clip-path">
      <rect id="Rectangle_29" data-name="Rectangle 29" width="189.385" height="60.974" fill="#fff"/>
    </clipPath>
    <clipPath id="clip-path-2">
      <path id="Path_37" data-name="Path 37" d="M6.658,1.852,1.618,9.17c-.712,1.034-.268,1.88.988,1.88H13.3c1.256,0,1.7-.846.988-1.88L9.249,1.852a1.6,1.6,0,0,0-1.3-.776,1.6,1.6,0,0,0-1.3.776" transform="translate(-1.279 -1.076)" fill="#fff"/>
    </clipPath>
    <clipPath id="clip-path-3">
      <path id="Path_38" data-name="Path 38" d="M67.443,1.852,62.4,9.17c-.712,1.034-.267,1.88.988,1.88H74.085c1.255,0,1.7-.846.988-1.88l-5.04-7.319a1.469,1.469,0,0,0-2.59,0" transform="translate(-62.063 -1.076)" fill="#fff"/>
    </clipPath>
    <clipPath id="clip-path-4">
      <path id="Path_39" data-name="Path 39" d="M128.228,1.852l-5.04,7.319c-.712,1.034-.267,1.88.988,1.88H134.87c1.255,0,1.7-.846.988-1.88l-5.04-7.319a1.468,1.468,0,0,0-2.59,0" transform="translate(-122.848 -1.076)" fill="#fff"/>
    </clipPath>
    <clipPath id="clip-path-5">
      <path id="Path_40" data-name="Path 40" d="M189.012,1.852l-5.04,7.319c-.712,1.034-.268,1.88.988,1.88h10.694c1.256,0,1.7-.846.988-1.88L191.6,1.852a1.469,1.469,0,0,0-2.59,0" transform="translate(-183.633 -1.076)" fill="#fff"/>
    </clipPath>
    <clipPath id="clip-path-6">
      <path id="Path_41" data-name="Path 41" d="M66.478,47.589,47.873,74.6c-.713,1.034-.268,1.881.988,1.881H86.685c1.256,0,1.7-.846.988-1.881l-18.6-27.015a1.468,1.468,0,0,0-2.59,0" transform="translate(-47.533 -46.813)" fill="#fff"/>
    </clipPath>
    <clipPath id="clip-path-7">
      <path id="Path_42" data-name="Path 42" d="M42.8,51.987l-10.127,14.7c-.712,1.034-.268,1.88.988,1.88H46.253l5.278-7.664-6.143-8.921a1.468,1.468,0,0,0-2.59,0" transform="translate(-32.331 -51.211)" fill="#fff"/>
    </clipPath>
    <clipPath id="clip-path-9">
      <path id="Path_44" data-name="Path 44" d="M139.222,51.987l-6.143,8.921,5.278,7.664h12.594c1.255,0,1.7-.846.988-1.88l-10.127-14.7a1.469,1.469,0,0,0-2.59,0" transform="translate(-133.079 -51.211)" fill="#fff"/>
    </clipPath>
  </defs>
  <g id="Group_34" data-name="Group 34" transform="translate(-826.909 3311.671)">
    <g id="Group_32" data-name="Group 32" transform="translate(826.909 -3311.671)">
      <g id="Group_12" data-name="Group 12">
        <g id="Group_11" data-name="Group 11" clip-path="url(#clip-path)">
          <path id="Path_10" data-name="Path 10" d="M7.952,182.795a.875.875,0,0,0-.227.045,1.091,1.091,0,0,0-.239.108.815.815,0,0,0-.221.2,1.031,1.031,0,0,0-.147.311q-.278.9-.646,2.111t-.795,2.573h-.36l-1.4-4.277-1.458,4.277H2.113q-.387-1.37-.8-2.843l-.556-1.974a.681.681,0,0,0-.1-.215.722.722,0,0,0-.186-.172.714.714,0,0,0-.229-.1A1.4,1.4,0,0,0,0,182.795v-.278H2.264v.278a3.485,3.485,0,0,0-.507.059q-.209.043-.209.145a.607.607,0,0,0,.012.1c.008.043.014.077.02.1q.089.345.318,1.139t.678,2.379L3.962,182.6h.383l1.4,4.216q.283-.972.487-1.7t.338-1.245q.094-.364.118-.5a1.4,1.4,0,0,0,.023-.229q0-.133-.182-.223a1.723,1.723,0,0,0-.589-.121v-.278H7.952Z" transform="translate(0 -127.315)" fill="#fff"/>
          <path id="Path_11" data-name="Path 11" d="M30.44,186.906h-1.9v-.258l.2-.016a.756.756,0,0,0,.18-.031.283.283,0,0,0,.163-.123.442.442,0,0,0,.053-.229v-1.984a.934.934,0,0,0-.194-.634.6.6,0,0,0-.473-.223,1.078,1.078,0,0,0-.378.065,1.417,1.417,0,0,0-.312.158.923.923,0,0,0-.2.2q-.07.1-.11.165v2.219a.413.413,0,0,0,.053.219.339.339,0,0,0,.162.133.859.859,0,0,0,.178.059,1.465,1.465,0,0,0,.2.027v.258H26.17v-.258l.187-.018a.924.924,0,0,0,.163-.029.29.29,0,0,0,.163-.123.431.431,0,0,0,.054-.229v-4.5a.64.64,0,0,0-.061-.266.471.471,0,0,0-.158-.2.563.563,0,0,0-.249-.072c-.119-.014-.215-.024-.288-.029v-.251l1.428-.086.055.059V183.6h.016q.129-.129.235-.229a1.857,1.857,0,0,1,.278-.209,1.462,1.462,0,0,1,.351-.156,1.516,1.516,0,0,1,.453-.063.987.987,0,0,1,.8.327,1.413,1.413,0,0,1,.278.941v2.008a.433.433,0,0,0,.049.221.323.323,0,0,0,.164.131,1.291,1.291,0,0,0,.163.053,1.163,1.163,0,0,0,.191.025Z" transform="translate(-18.124 -126.15)" fill="#fff"/>
          <path id="Path_12" data-name="Path 12" d="M45.688,190.818a1.978,1.978,0,0,1-.65.736,1.637,1.637,0,0,1-.935.274,1.9,1.9,0,0,1-.816-.165,1.6,1.6,0,0,1-.577-.446,1.893,1.893,0,0,1-.339-.658,2.775,2.775,0,0,1-.112-.794,2.346,2.346,0,0,1,.119-.738,2.082,2.082,0,0,1,.35-.651,1.7,1.7,0,0,1,.554-.448,1.593,1.593,0,0,1,.742-.17,1.787,1.787,0,0,1,.724.133,1.287,1.287,0,0,1,.489.364,1.456,1.456,0,0,1,.268.517,2.266,2.266,0,0,1,.088.646v.258H43.039a3.033,3.033,0,0,0,.072.691,1.647,1.647,0,0,0,.229.545,1.09,1.09,0,0,0,.4.359,1.233,1.233,0,0,0,.587.131,1.083,1.083,0,0,0,.6-.163,1.615,1.615,0,0,0,.487-.588Zm-.865-1.471a3.231,3.231,0,0,0-.037-.468,1.433,1.433,0,0,0-.119-.417.794.794,0,0,0-.247-.293.67.67,0,0,0-.4-.113.839.839,0,0,0-.683.341,1.589,1.589,0,0,0-.3.95Z" transform="translate(-29.478 -130.97)" fill="#fff"/>
          <path id="Path_13" data-name="Path 13" d="M57.926,188.4a.647.647,0,0,1-.1.354.332.332,0,0,1-.3.155.456.456,0,0,1-.335-.114.345.345,0,0,1-.116-.25.832.832,0,0,1,.014-.157q.014-.07.025-.141a.868.868,0,0,0-.43.148,1.269,1.269,0,0,0-.419.423v2.246a.423.423,0,0,0,.053.223.322.322,0,0,0,.166.129,1.065,1.065,0,0,0,.253.059q.154.02.268.027v.258H54.971V191.5l.186-.016a.7.7,0,0,0,.166-.031.281.281,0,0,0,.162-.123.441.441,0,0,0,.053-.229v-2.381a.541.541,0,0,0-.057-.238.473.473,0,0,0-.158-.188.528.528,0,0,0-.176-.068,1.565,1.565,0,0,0-.219-.03v-.258l1.284-.086.055.055v.544h.019a1.751,1.751,0,0,1,.54-.482,1.143,1.143,0,0,1,.544-.165.532.532,0,0,1,.4.161.6.6,0,0,1,.155.43" transform="translate(-38.315 -131.006)" fill="#fff"/>
          <path id="Path_14" data-name="Path 14" d="M69.354,190.818a1.978,1.978,0,0,1-.65.736,1.637,1.637,0,0,1-.935.274,1.9,1.9,0,0,1-.816-.165,1.6,1.6,0,0,1-.577-.446,1.893,1.893,0,0,1-.339-.658,2.775,2.775,0,0,1-.112-.794,2.346,2.346,0,0,1,.119-.738,2.082,2.082,0,0,1,.35-.651,1.7,1.7,0,0,1,.554-.448,1.593,1.593,0,0,1,.742-.17,1.787,1.787,0,0,1,.724.133,1.287,1.287,0,0,1,.489.364,1.456,1.456,0,0,1,.268.517,2.266,2.266,0,0,1,.088.646v.258H66.705a3.033,3.033,0,0,0,.072.691,1.647,1.647,0,0,0,.229.545,1.09,1.09,0,0,0,.4.359,1.233,1.233,0,0,0,.587.131,1.083,1.083,0,0,0,.6-.163,1.615,1.615,0,0,0,.487-.588Zm-.865-1.471a3.231,3.231,0,0,0-.037-.468,1.433,1.433,0,0,0-.119-.417.793.793,0,0,0-.246-.293.67.67,0,0,0-.4-.113A.839.839,0,0,0,67,188.4a1.589,1.589,0,0,0-.3.95Z" transform="translate(-45.987 -130.97)" fill="#fff"/>
          <path id="Path_15" data-name="Path 15" d="M88.885,185.233a1.3,1.3,0,0,1,.26.429,1.6,1.6,0,0,1,.084.542,1.544,1.544,0,0,1-.544,1.213,1.973,1.973,0,0,1-1.35.477,2.488,2.488,0,0,1-.743-.116,2.862,2.862,0,0,1-.642-.28l-.168.286h-.313l-.055-1.9h.317a4.2,4.2,0,0,0,.229.636,2.223,2.223,0,0,0,.346.53,1.575,1.575,0,0,0,.475.368,1.391,1.391,0,0,0,.632.137,1.423,1.423,0,0,0,.472-.07.821.821,0,0,0,.327-.2.812.812,0,0,0,.186-.3,1.218,1.218,0,0,0,.061-.4,1.115,1.115,0,0,0-.188-.621,1.156,1.156,0,0,0-.56-.437q-.254-.1-.583-.224t-.567-.232a1.842,1.842,0,0,1-.73-.553,1.438,1.438,0,0,1-.26-.894,1.365,1.365,0,0,1,.129-.591,1.539,1.539,0,0,1,.368-.489,1.671,1.671,0,0,1,.536-.319,1.833,1.833,0,0,1,.646-.116,1.888,1.888,0,0,1,.687.118,3.29,3.29,0,0,1,.554.274l.161-.266h.313l.031,1.843h-.317q-.086-.317-.194-.607a2.15,2.15,0,0,0-.28-.524,1.283,1.283,0,0,0-.411-.362,1.207,1.207,0,0,0-.595-.135.91.91,0,0,0-.634.239.76.76,0,0,0-.262.583,1,1,0,0,0,.168.6,1.228,1.228,0,0,0,.489.389,6.024,6.024,0,0,0,.562.237q.276.1.534.213a3.99,3.99,0,0,1,.452.231,1.708,1.708,0,0,1,.378.3" transform="translate(-59.58 -127.025)" fill="#fff"/>
          <path id="Path_16" data-name="Path 16" d="M103.424,190.818a1.978,1.978,0,0,1-.65.736,1.637,1.637,0,0,1-.935.274,1.9,1.9,0,0,1-.816-.165,1.6,1.6,0,0,1-.577-.446,1.893,1.893,0,0,1-.339-.658,2.775,2.775,0,0,1-.112-.794,2.346,2.346,0,0,1,.119-.738,2.082,2.082,0,0,1,.35-.651,1.7,1.7,0,0,1,.554-.448,1.593,1.593,0,0,1,.742-.17,1.787,1.787,0,0,1,.724.133,1.287,1.287,0,0,1,.489.364,1.456,1.456,0,0,1,.268.517,2.266,2.266,0,0,1,.088.646v.258h-2.555a3.034,3.034,0,0,0,.072.691,1.647,1.647,0,0,0,.229.545,1.09,1.09,0,0,0,.4.359,1.233,1.233,0,0,0,.587.131,1.083,1.083,0,0,0,.6-.163,1.615,1.615,0,0,0,.487-.588Zm-.865-1.471a3.229,3.229,0,0,0-.037-.468,1.433,1.433,0,0,0-.119-.417.794.794,0,0,0-.246-.293.67.67,0,0,0-.4-.113.839.839,0,0,0-.683.341,1.589,1.589,0,0,0-.3.95Z" transform="translate(-69.752 -130.97)" fill="#fff"/>
          <path id="Path_17" data-name="Path 17" d="M116.534,191.655c-.123.044-.23.08-.323.108a1.119,1.119,0,0,1-.315.041.769.769,0,0,1-.487-.143.66.66,0,0,1-.233-.417h-.023a1.918,1.918,0,0,1-.546.431,1.531,1.531,0,0,1-.7.148.994.994,0,0,1-.714-.266.915.915,0,0,1-.28-.7,1.188,1.188,0,0,1,.063-.4.959.959,0,0,1,.188-.317.944.944,0,0,1,.258-.209,2.256,2.256,0,0,1,.3-.147q.176-.067.714-.246a5.35,5.35,0,0,0,.726-.282v-.387a1.688,1.688,0,0,0-.022-.2.83.83,0,0,0-.092-.274.778.778,0,0,0-.221-.253.663.663,0,0,0-.4-.108.912.912,0,0,0-.335.06.608.608,0,0,0-.217.127,1.066,1.066,0,0,0,.037.231,1.183,1.183,0,0,1,.037.282.337.337,0,0,1-.123.25.485.485,0,0,1-.343.114.32.32,0,0,1-.287-.139.549.549,0,0,1,.035-.655,1.272,1.272,0,0,1,.331-.294,1.8,1.8,0,0,1,.426-.186,1.668,1.668,0,0,1,.489-.077,3.208,3.208,0,0,1,.573.045,1.057,1.057,0,0,1,.445.194.9.9,0,0,1,.3.393,1.676,1.676,0,0,1,.1.64q0,.559-.012.992t-.012.945a.476.476,0,0,0,.053.243.424.424,0,0,0,.162.153.4.4,0,0,0,.186.039q.127,0,.26,0Zm-1.366-2.066q-.333.1-.583.192a2.351,2.351,0,0,0-.466.236,1.062,1.062,0,0,0-.309.316.8.8,0,0,0-.113.433.612.612,0,0,0,.171.478.621.621,0,0,0,.433.153.886.886,0,0,0,.489-.135,1.431,1.431,0,0,0,.357-.32Z" transform="translate(-78.76 -130.97)" fill="#fff"/>
          <path id="Path_18" data-name="Path 18" d="M129.015,188.4a.647.647,0,0,1-.1.354.332.332,0,0,1-.3.155.456.456,0,0,1-.335-.114.345.345,0,0,1-.116-.25.832.832,0,0,1,.014-.157q.014-.07.025-.141a.868.868,0,0,0-.43.148,1.269,1.269,0,0,0-.419.423v2.246a.423.423,0,0,0,.053.223.322.322,0,0,0,.166.129,1.065,1.065,0,0,0,.253.059q.154.02.268.027v.258H126.06V191.5l.186-.016a.7.7,0,0,0,.166-.031.281.281,0,0,0,.162-.123.441.441,0,0,0,.053-.229v-2.381a.541.541,0,0,0-.057-.238.473.473,0,0,0-.158-.188.528.528,0,0,0-.176-.068,1.565,1.565,0,0,0-.219-.03v-.258l1.284-.086.055.055v.544h.019a1.75,1.75,0,0,1,.54-.482,1.143,1.143,0,0,1,.544-.165.532.532,0,0,1,.4.161.6.6,0,0,1,.155.43" transform="translate(-87.903 -131.006)" fill="#fff"/>
          <path id="Path_19" data-name="Path 19" d="M138.8,191.828a1.63,1.63,0,0,1-1.311-.556,2.5,2.5,0,0,1-.346-2.252,2.1,2.1,0,0,1,.37-.644,1.726,1.726,0,0,1,.579-.448,1.7,1.7,0,0,1,.759-.17,1.481,1.481,0,0,1,.924.272.883.883,0,0,1,.356.742.641.641,0,0,1-.094.347.336.336,0,0,1-.309.151.508.508,0,0,1-.358-.117.348.348,0,0,1-.127-.261,1.474,1.474,0,0,1,.047-.361,2,2,0,0,0,.055-.271.346.346,0,0,0-.209-.162,1.053,1.053,0,0,0-.3-.041.826.826,0,0,0-.357.08.919.919,0,0,0-.33.3,1.579,1.579,0,0,0-.234.528,3.079,3.079,0,0,0-.09.795,2.023,2.023,0,0,0,.322,1.188.988.988,0,0,0,.846.46,1.055,1.055,0,0,0,.635-.185,1.8,1.8,0,0,0,.475-.555l.25.164a2.022,2.022,0,0,1-.681.732,1.6,1.6,0,0,1-.873.27" transform="translate(-95.575 -130.97)" fill="#fff"/>
          <path id="Path_20" data-name="Path 20" d="M152.653,186.906h-1.9v-.258l.2-.016a.756.756,0,0,0,.18-.031.283.283,0,0,0,.163-.123.442.442,0,0,0,.053-.229v-1.984a.934.934,0,0,0-.194-.634.6.6,0,0,0-.473-.223,1.078,1.078,0,0,0-.378.065,1.417,1.417,0,0,0-.312.158.923.923,0,0,0-.2.2q-.07.1-.11.165v2.219a.413.413,0,0,0,.053.219.339.339,0,0,0,.162.133.859.859,0,0,0,.178.059,1.465,1.465,0,0,0,.2.027v.258h-1.89v-.258l.187-.018a.924.924,0,0,0,.163-.029.29.29,0,0,0,.163-.123.431.431,0,0,0,.054-.229v-4.5a.641.641,0,0,0-.061-.266.471.471,0,0,0-.158-.2.563.563,0,0,0-.249-.072c-.119-.014-.215-.024-.288-.029v-.251l1.428-.086.055.059V183.6h.016q.129-.129.235-.229a1.857,1.857,0,0,1,.278-.209,1.462,1.462,0,0,1,.351-.156,1.516,1.516,0,0,1,.453-.063.987.987,0,0,1,.8.327,1.413,1.413,0,0,1,.278.941v2.008a.433.433,0,0,0,.049.221.323.323,0,0,0,.164.131,1.292,1.292,0,0,0,.163.053,1.164,1.164,0,0,0,.191.025Z" transform="translate(-103.373 -126.15)" fill="#fff"/>
          <path id="Path_21" data-name="Path 21" d="M175.763,186.435l-.106,1.636h-4.61v-.278c.078-.005.182-.016.313-.033a1.075,1.075,0,0,0,.254-.053.359.359,0,0,0,.174-.153.519.519,0,0,0,.049-.239v-3.992a.572.572,0,0,0-.043-.229.333.333,0,0,0-.18-.162,1.329,1.329,0,0,0-.284-.09,2.194,2.194,0,0,0-.284-.047v-.278h4.3v1.339h-.293a1.806,1.806,0,0,0-.339-.632.838.838,0,0,0-.495-.366q-.122-.015-.29-.023t-.383-.008h-.873v2.207h.626a1.253,1.253,0,0,0,.44-.057.6.6,0,0,0,.244-.19,1.01,1.01,0,0,0,.147-.3,1.942,1.942,0,0,0,.08-.358h.293V186.3h-.293a1.756,1.756,0,0,0-.084-.4,1,1,0,0,0-.143-.3.562.562,0,0,0-.276-.2,1.444,1.444,0,0,0-.409-.047h-.626v1.664a1.734,1.734,0,0,0,.035.395.368.368,0,0,0,.137.219.588.588,0,0,0,.278.1,4.444,4.444,0,0,0,.5.021h.341a3.349,3.349,0,0,0,.356-.016,2.058,2.058,0,0,0,.307-.057.47.47,0,0,0,.225-.111,2.5,2.5,0,0,0,.377-.57,3.825,3.825,0,0,0,.253-.562Z" transform="translate(-119.314 -127.315)" fill="#fff"/>
          <path id="Path_22" data-name="Path 22" d="M192.341,191.735h-1.886v-.258l.2-.016a.753.753,0,0,0,.178-.031.281.281,0,0,0,.162-.123.438.438,0,0,0,.053-.229v-1.984a.935.935,0,0,0-.194-.634.6.6,0,0,0-.473-.223,1.074,1.074,0,0,0-.38.065,1.348,1.348,0,0,0-.306.158.861.861,0,0,0-.206.194,1.76,1.76,0,0,0-.112.166v2.219a.4.4,0,0,0,.055.219.351.351,0,0,0,.165.133.774.774,0,0,0,.178.059,1.6,1.6,0,0,0,.2.027v.258h-1.89v-.258l.186-.016a.725.725,0,0,0,.166-.031.282.282,0,0,0,.162-.123.441.441,0,0,0,.053-.229V188.7a.531.531,0,0,0-.057-.244.49.49,0,0,0-.158-.182.541.541,0,0,0-.176-.068,1.62,1.62,0,0,0-.219-.029v-.258l1.284-.086.055.055v.544h.02q.094-.094.235-.225a2.047,2.047,0,0,1,.266-.213,1.389,1.389,0,0,1,.344-.156,1.492,1.492,0,0,1,.45-.063.976.976,0,0,1,.824.346,1.467,1.467,0,0,1,.268.922v2.008a.453.453,0,0,0,.047.221.31.31,0,0,0,.161.131,1,1,0,0,0,.162.055,1.227,1.227,0,0,0,.19.024Z" transform="translate(-131.164 -130.98)" fill="#fff"/>
          <path id="Path_23" data-name="Path 23" d="M208.061,186.836l-1.35.086-.059-.055v-.36l-.031-.008a1.6,1.6,0,0,1-.5.372,1.4,1.4,0,0,1-.615.145,1.455,1.455,0,0,1-.635-.147,1.606,1.606,0,0,1-.534-.413,2.036,2.036,0,0,1-.365-.649,2.482,2.482,0,0,1-.135-.838,2.19,2.19,0,0,1,.145-.794,2.1,2.1,0,0,1,.4-.658,1.749,1.749,0,0,1,.584-.419,1.7,1.7,0,0,1,.705-.157,2.069,2.069,0,0,1,.53.068,1.928,1.928,0,0,1,.448.174v-1.345a.8.8,0,0,0-.055-.3.453.453,0,0,0-.153-.206.766.766,0,0,0-.3-.108,3.946,3.946,0,0,0-.4-.049v-.243l1.581-.086.059.059v5.2a.481.481,0,0,0,.052.233.463.463,0,0,0,.155.162.481.481,0,0,0,.215.059c.094.008.18.013.258.016Zm-1.416-.677V183.9a1.01,1.01,0,0,0-.1-.219.978.978,0,0,0-.176-.215.994.994,0,0,0-.266-.162.9.9,0,0,0-.355-.064.8.8,0,0,0-.432.121,1.154,1.154,0,0,0-.35.348,1.793,1.793,0,0,0-.229.558,3.128,3.128,0,0,0-.084.749,2.612,2.612,0,0,0,.063.6,1.583,1.583,0,0,0,.211.5,1.089,1.089,0,0,0,.35.352.933.933,0,0,0,.505.133.911.911,0,0,0,.517-.137,1.689,1.689,0,0,0,.346-.3" transform="translate(-142.185 -126.15)" fill="#fff"/>
          <path id="Path_24" data-name="Path 24" d="M221.609,189.826a.988.988,0,0,1,.246.325,1.062,1.062,0,0,1,.086.45,1.1,1.1,0,0,1-.4.877,1.717,1.717,0,0,1-1.659.219,1.716,1.716,0,0,1-.4-.223l-.078.254H219.1l-.039-1.342h.27a1.494,1.494,0,0,0,.133.357,1.712,1.712,0,0,0,.247.369,1.357,1.357,0,0,0,.366.291.976.976,0,0,0,.479.118.874.874,0,0,0,.579-.171.6.6,0,0,0,.2-.49.586.586,0,0,0-.065-.284.622.622,0,0,0-.19-.209,1.489,1.489,0,0,0-.317-.162q-.188-.073-.419-.143a3.785,3.785,0,0,1-.409-.151,1.618,1.618,0,0,1-.385-.225,1.1,1.1,0,0,1-.282-.336.961.961,0,0,1-.109-.47,1.055,1.055,0,0,1,.352-.8,1.327,1.327,0,0,1,.943-.329,1.932,1.932,0,0,1,.464.059,1.62,1.62,0,0,1,.386.141l.09-.2h.282l.058,1.241h-.27a1.247,1.247,0,0,0-.354-.678.922.922,0,0,0-.663-.261.738.738,0,0,0-.5.161.5.5,0,0,0-.184.39.635.635,0,0,0,.061.293.533.533,0,0,0,.182.2,1.5,1.5,0,0,0,.3.147q.178.069.44.155a3.794,3.794,0,0,1,.487.192,1.6,1.6,0,0,1,.378.243" transform="translate(-152.809 -130.961)" fill="#fff"/>
          <path id="Path_25" data-name="Path 25" d="M297.7,43.516l-2.728-29.846H294.8L284.144,43.516H276.9L275.532,8.724c-.085-2.132-.427-2.984-2.047-2.984a2.823,2.823,0,0,0-1.791.6h-.171c.6-4.177,3.325-6.053,6.736-6.053,3.24,0,4.945,1.705,4.945,6.821v23.45h.171L293.864.71h5.628l2.9,29.844h.171L310.322.71h8.016L305.376,43.516Z" transform="translate(-189.401 -0.197)" fill="#fff"/>
          <path id="Path_26" data-name="Path 26" d="M443.4,13.9l.427-2.813A9,9,0,0,0,444,9.039c0-2.132-.939-3.411-3.752-3.411-2.73,0-5.457,1.791-5.457,5.031,0,6.992,14.069,9.465,14.069,19.527,0,8.358-5.372,13.645-14.667,13.645-8.1,0-11.6-4.179-11.6-9.124,0-5.543,3.923-8.783,10.061-8.783h.6a10.9,10.9,0,0,0-3.325,7.248c0,2.728,1.876,4.177,5.116,4.177a5.762,5.762,0,0,0,5.8-6.053c0-8.187-13.73-9.636-13.73-19.7,0-7.248,5.628-11.6,14.24-11.6,6.823,0,9.978,3.582,9.978,8.356a16.553,16.553,0,0,1-.171,1.961l-.6,3.581Z" transform="translate(-294.782)" fill="#fff"/>
          <path id="Path_27" data-name="Path 27" d="M553.687,33.172c-1.023,6.394-4.86,10.659-13.728,10.659-6.565,0-11.342-2.73-11.342-8.953a20.881,20.881,0,0,1,.171-2.218l3.154-19.954C533.223,4.689,538.851,0,547.292,0c6.394,0,10.829,3.325,10.829,9.637,0,11.083-9.551,15.433-20.125,15.689L536.719,33.6a6.9,6.9,0,0,0-.085,1.281c0,2.557,1.535,3.837,4.008,3.837,2.727,0,4.945-1.451,5.543-5.374l.51-3.24h7.5ZM538.51,21.915c7.248,0,12.108-4.35,12.108-12.11,0-2.813-1.193-4.689-3.838-4.689-3.5,0-5.8,1.535-6.565,6.395Z" transform="translate(-368.736 0)" fill="#fff"/>
          <path id="Path_28" data-name="Path 28" d="M486.925,72.975c2.373-.372,4.719-.639,7.111-.8a37.708,37.708,0,0,1,7.307.117l-.461,2.766a35.317,35.317,0,0,0-6.743-.416c-2.3.044-4.632.2-6.912.444Z" transform="translate(-339.654 -50.262)" fill="#fff"/>
          <rect id="Rectangle_28" data-name="Rectangle 28" width="1.287" height="8.633" transform="translate(104.101 52.246)" fill="#fff"/>
          <path id="Path_29" data-name="Path 29" d="M362.549,172.741v8.633H361.9a.516.516,0,0,1-.249-.054.739.739,0,0,1-.2-.174l-4.875-6.306q.012.162.021.318t.009.295v5.921H355.48v-8.633h.661a.624.624,0,0,1,.252.039.55.55,0,0,1,.187.177l4.887,6.312c-.012-.116-.021-.23-.027-.34s-.009-.214-.009-.31v-5.879Z" transform="translate(-247.965 -120.495)" fill="#fff"/>
          <path id="Path_30" data-name="Path 30" d="M387.2,173.781v2.892h3.462v1.04H387.2v3.661H385.91v-8.633h5.35v1.04Z" transform="translate(-269.191 -120.495)" fill="#fff"/>
          <path id="Path_31" data-name="Path 31" d="M414.863,181.373h-1.142a.533.533,0,0,1-.5-.27l-2.134-2.994a.64.64,0,0,0-.222-.213.8.8,0,0,0-.361-.063h-.835v3.541h-1.281V172.74h2.489a5.327,5.327,0,0,1,1.439.171,2.8,2.8,0,0,1,1,.487,1.938,1.938,0,0,1,.583.761,2.524,2.524,0,0,1,.189,1,2.557,2.557,0,0,1-.138.848,2.234,2.234,0,0,1-.406.713,2.565,2.565,0,0,1-.652.544,3.2,3.2,0,0,1-.872.349,1.326,1.326,0,0,1,.415.4Zm-4.027-4.472a2.853,2.853,0,0,0,.869-.12,1.76,1.76,0,0,0,.628-.34,1.392,1.392,0,0,0,.379-.523,1.729,1.729,0,0,0,.126-.67,1.334,1.334,0,0,0-.49-1.124,2.381,2.381,0,0,0-1.47-.379H409.67V176.9Z" transform="translate(-284.872 -120.495)" fill="#fff"/>
          <path id="Path_32" data-name="Path 32" d="M438.145,181.374h-.986a.437.437,0,0,1-.276-.084.47.47,0,0,1-.156-.216l-.764-2h-3.805l-.763,2a.491.491,0,0,1-.156.207.424.424,0,0,1-.276.093h-.986l3.439-8.633h1.292Zm-2.531-3.216-1.281-3.348a7.423,7.423,0,0,1-.276-.866q-.066.259-.135.481c-.046.148-.091.281-.135.4l-1.274,3.336Z" transform="translate(-299.929 -120.495)" fill="#fff"/>
          <path id="Path_33" data-name="Path 33" d="M461.588,173.811h-2.741v7.562h-1.275v-7.562h-2.753v-1.07h6.769Z" transform="translate(-317.259 -120.495)" fill="#fff"/>
          <path id="Path_34" data-name="Path 34" d="M486.669,180.333l-.006,1.04h-5.35V172.74h5.35v1.04H482.6v2.735h3.27v1H482.6v2.813Z" transform="translate(-335.739 -120.495)" fill="#fff"/>
          <path id="Path_35" data-name="Path 35" d="M508.457,179.3a.246.246,0,0,1,.186.084l.505.553a3.609,3.609,0,0,1-1.29.968,4.439,4.439,0,0,1-1.83.342,4.287,4.287,0,0,1-1.7-.325,3.737,3.737,0,0,1-1.3-.908,4.076,4.076,0,0,1-.833-1.395,5.191,5.191,0,0,1-.295-1.785,4.975,4.975,0,0,1,.309-1.786,4.1,4.1,0,0,1,.869-1.395,3.917,3.917,0,0,1,1.337-.908,4.432,4.432,0,0,1,1.722-.325,4.191,4.191,0,0,1,1.635.3,4.125,4.125,0,0,1,1.244.8l-.42.6a.361.361,0,0,1-.105.109.3.3,0,0,1-.165.042.474.474,0,0,1-.268-.114,3.976,3.976,0,0,0-.4-.255,3.187,3.187,0,0,0-.616-.256,3.124,3.124,0,0,0-.913-.114,3,3,0,0,0-1.178.225,2.608,2.608,0,0,0-.923.649,2.951,2.951,0,0,0-.6,1.04,4.231,4.231,0,0,0-.213,1.392,4.093,4.093,0,0,0,.222,1.4,3.068,3.068,0,0,0,.613,1.04,2.6,2.6,0,0,0,.92.649,2.911,2.911,0,0,0,1.142.223,4.475,4.475,0,0,0,.67-.045,2.829,2.829,0,0,0,.547-.135,2.374,2.374,0,0,0,.472-.231,3.136,3.136,0,0,0,.439-.34.478.478,0,0,1,.1-.069.25.25,0,0,1,.114-.027" transform="translate(-350.104 -120.274)" fill="#fff"/>
          <path id="Path_36" data-name="Path 36" d="M537.2,172.741v8.633h-1.28v-3.889h-4.5v3.889h-1.287v-8.633h1.287v3.811h4.5v-3.811Z" transform="translate(-369.79 -120.495)" fill="#fff"/>
        </g>
      </g>
      <g id="Group_14" data-name="Group 14" transform="translate(0.387 0.325)">
        <g id="Group_13" data-name="Group 13" clip-path="url(#clip-path-2)">
          <rect id="Rectangle_30" data-name="Rectangle 30" width="14.095" height="9.975" transform="translate(-0.373 0)" fill="#fff"/>
        </g>
      </g>
      <g id="Group_16" data-name="Group 16" transform="translate(18.771 0.325)" opacity="0.85">
        <g id="Group_15" data-name="Group 15" clip-path="url(#clip-path-3)">
          <rect id="Rectangle_31" data-name="Rectangle 31" width="14.095" height="9.975" transform="translate(-0.372 0)" fill="#fff"/>
        </g>
      </g>
      <g id="Group_18" data-name="Group 18" transform="translate(37.155 0.325)">
        <g id="Group_17" data-name="Group 17" clip-path="url(#clip-path-4)">
          <rect id="Rectangle_32" data-name="Rectangle 32" width="14.095" height="9.975" transform="translate(-0.373 0)" fill="#fff"/>
        </g>
      </g>
      <g id="Group_20" data-name="Group 20" transform="translate(55.54 0.325)" opacity="0.85">
        <g id="Group_19" data-name="Group 19" clip-path="url(#clip-path-5)">
          <rect id="Rectangle_33" data-name="Rectangle 33" width="14.095" height="9.975" transform="translate(-0.373 0)" fill="#fff"/>
        </g>
      </g>
      <g id="Group_22" data-name="Group 22" transform="translate(14.376 14.159)">
        <g id="Group_21" data-name="Group 21" clip-path="url(#clip-path-6)">
          <rect id="Rectangle_34" data-name="Rectangle 34" width="41.224" height="29.672" transform="translate(-0.373 0)" fill="#fff" opacity="0.85"/>
        </g>
      </g>
      <g id="Group_24" data-name="Group 24" transform="translate(9.779 15.489)">
        <g id="Group_23" data-name="Group 23" clip-path="url(#clip-path-7)">
          <rect id="Rectangle_35" data-name="Rectangle 35" width="19.572" height="17.361" transform="translate(-0.372)" fill="#fff"/>
        </g>
      </g>
      <g id="Group_26" data-name="Group 26">
        <g id="Group_25" data-name="Group 25" clip-path="url(#clip-path)">
          <path id="Path_43" data-name="Path 43" d="M81.012,84.046l-5-7.266-6.63,9.628H79.771c1.578,0,2.136-1.063,1.242-2.362" transform="translate(-48.395 -53.558)" fill="#fff"/>
        </g>
      </g>
      <g id="Group_28" data-name="Group 28" transform="translate(40.25 15.489)">
        <g id="Group_27" data-name="Group 27" clip-path="url(#clip-path-9)">
          <rect id="Rectangle_37" data-name="Rectangle 37" width="19.573" height="17.361" transform="translate(0)" fill="#fff"/>
        </g>
      </g>
      <g id="Group_30" data-name="Group 30">
        <g id="Group_29" data-name="Group 29" clip-path="url(#clip-path)">
          <path id="Path_45" data-name="Path 45" d="M120.063,84.046l5-7.266,6.63,9.628H121.3c-1.578,0-2.136-1.063-1.242-2.362" transform="translate(-83.452 -53.558)" fill="#fff"/>
        </g>
      </g>
    </g>
  </g>
</svg>
